<svg width="24" height="24" viewBox="0 0 24 24" fill="none" xmlns="http://www.w3.org/2000/svg">
<g clip-path="url(#clip0)">
<rect width="24" height="24" fill="white"/>
<path d="M8.5 0H4.5L0 8H4L8.5 0Z" transform="translate(15 12)" fill="#4CD964"/>
<mask id="mask0" mask-type="alpha" maskUnits="userSpaceOnUse" x="0" y="4" width="24" height="16">
<path d="M18.5 0H14.5L6.61 12.63L4 8L8.5 0H4.5L0 8L4.5 16H8.5L16.39 3.37L19 8L14.5 16H18.5L23 8L18.5 0Z" transform="translate(0.5 4)" fill="black"/>
</mask>
<g mask="url(#mask0)">
<path d="M4 0H0L4.5 8H8.5L4 0Z" transform="translate(15 4)" fill="#007AFF"/>
</g>
<mask id="mask1" mask-type="alpha" maskUnits="userSpaceOnUse" x="0" y="4" width="24" height="16">
<path d="M18.5 0H14.5L6.61 12.63L4 8L8.5 0H4.5L0 8L4.5 16H8.5L16.39 3.37L19 8L14.5 16H18.5L23 8L18.5 0Z" transform="translate(0.5 4)" fill="black"/>
</mask>
<g mask="url(#mask1)">
<path d="M9.78 3.37L7.89 0L0 12.63L1.89 16L9.78 3.37Z" transform="translate(7.10999 4)" fill="#FFCC00"/>
</g>
<mask id="mask2" mask-type="alpha" maskUnits="userSpaceOnUse" x="0" y="4" width="24" height="16">
<path d="M18.5 0H14.5L6.61 12.63L4 8L8.5 0H4.5L0 8L4.5 16H8.5L16.39 3.37L19 8L14.5 16H18.5L23 8L18.5 0Z" transform="translate(0.5 4)" fill="black"/>
</mask>
<g mask="url(#mask2)">
<path d="M4 0H0L4.5 8H8.5L6.61 4.63L4 0Z" transform="translate(0.5 12)" fill="#FF3B30"/>
</g>
<mask id="mask3" mask-type="alpha" maskUnits="userSpaceOnUse" x="0" y="4" width="24" height="16">
<path d="M18.5 0H14.5L6.61 12.63L4 8L8.5 0H4.5L0 8L4.5 16H8.5L16.39 3.37L19 8L14.5 16H18.5L23 8L18.5 0Z" transform="translate(0.5 4)" fill="black"/>
</mask>
<g mask="url(#mask3)">
<rect width="9" height="8" transform="translate(0 4)" fill="#4CD964"/>
</g>
</g>
<defs>
<clipPath id="clip0">
<rect width="24" height="24" fill="white"/>
</clipPath>
</defs>
</svg>
