<svg width="24" height="24" viewBox="0 0 24 24" fill="none" xmlns="http://www.w3.org/2000/svg">
<rect width="24" height="24" fill="white"/>
<rect width="7" height="1" transform="translate(4 13)" fill="#FF3B30"/>
<mask id="mask0" mask-type="alpha" maskUnits="userSpaceOnUse" x="2" y="4" width="20" height="16">
<path d="M18 0H2C0.9 0 0.00999999 0.9 0.00999999 2L0 14C0 15.1 0.9 16 2 16H18C19.1 16 20 15.1 20 14V2C20 0.9 19.1 0 18 0ZM13 14H2V10H13V14ZM13 9H2V5H13V9ZM18 14H14V5H18V14Z" transform="translate(2 4)" fill="black"/>
</mask>
<g mask="url(#mask0)">
<mask id="mask1" mask-type="alpha" maskUnits="userSpaceOnUse" x="0" y="2" width="23" height="19">
<path d="M0 16L20 0V16H0Z" transform="translate(2 4)" fill="#4CD964"/>
</mask>
<g mask="url(#mask1)">
<rect width="11" height="1" transform="translate(4 13)" fill="#4CD964"/>
</g>
</g>
<mask id="mask2" mask-type="alpha" maskUnits="userSpaceOnUse" x="2" y="4" width="20" height="16">
<path d="M18 0H2C0.9 0 0.00999999 0.9 0.00999999 2L0 14C0 15.1 0.9 16 2 16H18C19.1 16 20 15.1 20 14V2C20 0.9 19.1 0 18 0ZM13 14H2V10H13V14ZM13 9H2V5H13V9ZM18 14H14V5H18V14Z" transform="translate(2 4)" fill="black"/>
</mask>
<g mask="url(#mask2)">
<rect width="1" height="1" transform="translate(15 9)" fill="#4CD964"/>
<mask id="mask3" mask-type="alpha" maskUnits="userSpaceOnUse" x="0" y="2" width="23" height="19">
<path d="M0 16L20 0V16H0Z" transform="translate(2 4)" fill="#4CD964"/>
</mask>
<g mask="url(#mask3)">
<rect width="1" height="9" transform="translate(15 9)" fill="#FF3B30"/>
</g>
</g>
<mask id="mask4" mask-type="alpha" maskUnits="userSpaceOnUse" x="2" y="4" width="20" height="16">
<path d="M18 0H2C0.9 0 0.00999999 0.9 0.00999999 2L0 14C0 15.1 0.9 16 2 16H18C19.1 16 20 15.1 20 14V2C20 0.9 19.1 0 18 0ZM13 14H2V10H13V14ZM13 9H2V5H13V9ZM18 14H14V5H18V14Z" transform="translate(2 4)" fill="black"/>
</mask>
<g mask="url(#mask4)">
<path fill-rule="evenodd" clip-rule="evenodd" d="M20 0H0V16H20V0ZM18 5H2V14H18V5Z" transform="translate(2 4)" fill="#007AFF"/>
</g>
<mask id="mask5" mask-type="alpha" maskUnits="userSpaceOnUse" x="2" y="4" width="20" height="16">
<path d="M18 0H2C0.9 0 0.00999999 0.9 0.00999999 2L0 14C0 15.1 0.9 16 2 16H18C19.1 16 20 15.1 20 14V2C20 0.9 19.1 0 18 0ZM13 14H2V10H13V14ZM13 9H2V5H13V9ZM18 14H14V5H18V14Z" transform="translate(2 4)" fill="black"/>
</mask>
<g mask="url(#mask5)">
<mask id="mask6" mask-type="alpha" maskUnits="userSpaceOnUse" x="2" y="4" width="20" height="16">
<path fill-rule="evenodd" clip-rule="evenodd" d="M20 0H0V16H20V0ZM18 5H2V14H18V5Z" transform="translate(2 4)" fill="#007AFF"/>
</mask>
<g mask="url(#mask6)">
<path d="M0 16L20 0V16H0Z" transform="translate(2 4)" fill="#FFCC00"/>
</g>
</g>
</svg>
